<svg xmlns="http://www.w3.org/2000/svg" width="1200" height="289" fill="none"><path fill="#fff" d="M0 0h1200v289H0z"/><path fill="#000" d="m35.188 157.466-3.874 10.898c-1.454 3.875-2.301 7.629-2.301 9.929 0 4.36 3.148 6.297 10.171 6.539v3.027H10.85v-3.027c6.902 0 10.898-4.238 15.5-16.468l25.792-68.295 7.508-.848 25.67 73.139c3.391 9.929 5.692 12.23 12.715 12.472v3.027H66.793v-3.027c6.176-.242 8.718-1.695 8.718-5.207 0-1.453-.484-3.875-1.453-6.902l-5.085-15.257H35.188Zm32.21-4.48-14.772-42.382-15.742 42.382h30.514Zm50.771 34.873v-3.511c5.207-.363 6.418-.484 7.992-1.211 2.664-1.211 3.27-3.754 3.27-12.472v-50.979c-.242-10.535-.242-10.535-1.211-11.383-.969-.847-2.422-1.09-5.449-1.09h-4.602v-3.511c9.203-.606 17.074-1.695 23.007-3.149-.605 9.567-.968 19.859-.968 34.148v35.964c0 8.113.484 10.535 2.179 11.988 1.453 1.211 1.938 1.332 8.84 1.695v3.511h-33.058Zm151.23-40.08h29.546v2.906c-8.355.484-8.84 1.09-8.84 11.746v8.96c0 6.176.121 8.84.363 12.836-6.538.847-7.265.969-14.409 2.785-7.145 1.695-12.715 2.422-18.043 2.422-24.944 0-39.96-16.59-39.96-44.077 0-28.335 16.227-46.983 40.929-46.983 5.57 0 8.597.363 15.984 2.058 1.937.485 4.601.848 6.176.848 2.421 0 4.601-.484 7.265-1.816v25.429h-3.754c-1.09-6.903-2.664-11.383-5.328-15.137-3.996-5.328-10.656-8.113-19.253-8.113-10.777 0-19.011 4.481-23.734 13.078-4.117 7.508-6.175 17.074-6.175 28.698 0 11.625 2.3 22.039 6.538 29.425 5.207 8.961 12.473 13.32 22.402 13.32 7.508 0 15.5-2.179 20.585-5.57v-18.163c0-10.293-.847-11.262-10.292-11.746v-2.906Zm38.236 40.08v-2.906c9.687-.363 10.535-1.211 10.535-12.351v-57.154c0-11.262-.727-11.988-10.535-12.352v-3.027h32.21v3.027c-9.93.364-10.656 1.09-10.656 12.352v68.779h17.074c14.53 0 19.737-4.723 23.249-20.949l3.754.485-2.301 24.096h-63.33Zm73.846-43.955c0-12.715 3.269-23.128 10.05-31.726 7.266-9.082 17.801-13.804 30.878-13.804 13.199 0 23.492 4.601 30.879 13.804 6.659 8.476 10.05 19.011 10.05 31.726 0 12.714-3.391 23.37-10.05 31.604-7.508 9.324-17.68 13.926-30.879 13.926-13.077 0-23.733-4.844-30.878-13.926-6.659-8.476-10.05-19.011-10.05-31.604Zm12.23 0c0 11.503 2.18 20.948 6.539 29.061 4.844 8.598 12.472 13.199 22.159 13.199 9.688 0 17.316-4.601 22.16-13.199 4.359-7.87 6.539-17.316 6.539-29.061 0-11.746-2.18-21.191-6.539-29.062-4.844-8.718-12.472-13.199-22.16-13.199-9.687 0-17.315 4.602-22.159 13.199-4.359 7.992-6.539 17.558-6.539 29.062Zm81.718 43.955v-2.906c4.117 0 6.539-.605 7.629-1.816 1.332-1.453 1.332-1.574 1.574-10.656v-57.033c-.242-7.75-.242-7.871-.606-8.961-.847-2.543-3.027-3.512-8.597-3.512v-2.906h33.058c9.445 0 17.558 1.332 22.28 3.512 7.024 3.39 10.414 8.839 10.414 16.831 0 11.504-7.386 17.922-22.644 19.859v.848c5.934.242 9.687 1.089 13.926 3.269 8.234 4.238 12.109 10.535 12.109 19.738 0 11.14-5.328 18.042-16.227 21.554-4.601 1.332-12.23 2.179-20.464 2.179h-32.452Zm19.98-48.92h12.23c14.531 0 22.038-6.176 22.038-18.042 0-11.625-7.507-17.195-23.128-17.195h-11.14v35.237Zm0 45.288h11.746c8.839 0 15.136-1.574 19.011-4.965 3.875-3.148 6.054-8.961 6.054-16.105 0-8.234-3.148-14.167-8.96-17.316-3.512-1.816-9.445-2.906-16.105-2.906h-11.746v41.292Zm81.138-26.761-3.875 10.898c-1.453 3.875-2.301 7.629-2.301 9.929 0 4.36 3.149 6.297 10.172 6.539v3.027h-28.335v-3.027c6.902 0 10.898-4.238 15.499-16.468l25.793-68.295 7.507-.848 25.671 73.139c3.391 9.929 5.692 12.23 12.715 12.472v3.027h-31.242v-3.027c6.176-.242 8.719-1.695 8.719-5.207 0-1.453-.484-3.875-1.453-6.902l-5.086-15.257h-33.784Zm32.21-4.48-14.773-42.382-15.742 42.382h30.515Zm36.724 34.873v-2.906c9.688-.363 10.535-1.211 10.535-12.351v-57.154c0-11.262-.726-11.988-10.535-12.352v-3.027h32.21v3.027c-9.929.364-10.656 1.09-10.656 12.352v68.779h17.074c14.531 0 19.738-4.723 23.249-20.949l3.754.485-2.3 24.096h-63.331Zm165.513-40.08h29.546v2.906c-8.355.484-8.84 1.09-8.84 11.746v8.96c0 6.176.121 8.84.363 12.836-6.538.847-7.265.969-14.409 2.785-7.145 1.695-12.715 2.422-18.043 2.422-24.944 0-39.96-16.59-39.96-44.077 0-28.335 16.227-46.983 40.929-46.983 5.57 0 8.597.363 15.984 2.058 1.937.485 4.601.848 6.175.848 2.422 0 4.602-.484 7.266-1.816v25.429h-3.754c-1.09-6.903-2.664-11.383-5.328-15.137-3.996-5.328-10.656-8.113-19.253-8.113-10.777 0-19.011 4.481-23.734 13.078-4.117 7.508-6.176 17.074-6.176 28.698 0 11.625 2.301 22.039 6.539 29.425 5.207 8.961 12.473 13.32 22.402 13.32 7.508 0 15.5-2.179 20.585-5.57v-18.163c0-10.293-.847-11.262-10.292-11.746v-2.906Zm57.974-1.575v26.277c0 11.14.726 12.109 9.445 12.351v3.027h-29.546v-3.027c8.597-.242 9.324-1.211 9.324-12.351v-57.033c0-11.262-.606-12.109-9.324-12.473v-2.906h33.542c22.159 0 32.452 6.902 32.452 21.675 0 5.207-1.574 10.293-4.117 13.683-3.633 4.723-11.262 7.992-20.343 8.961v1.09c4.117.848 6.902 2.058 9.687 4.359 3.754 3.27 6.054 6.902 10.05 15.863 5.934 13.441 6.902 15.136 9.324 17.195 1.817 1.574 3.512 2.179 6.418 2.301v2.663h-18.89c-4.723-13.198-9.808-25.428-13.199-31.362-2.906-5.207-5.207-7.629-8.84-8.839-2.542-.969-5.57-1.454-8.597-1.454h-7.386Zm0-3.632h10.05c7.265 0 13.199-1.332 16.71-3.754 4.844-3.269 7.387-8.84 7.387-16.226 0-12.715-7.508-18.89-23.007-18.89h-11.14v38.87Zm65.105 1.332c0-12.715 3.27-23.128 10.051-31.726 7.265-9.082 17.8-13.804 30.878-13.804 13.199 0 23.491 4.601 30.878 13.804 6.66 8.476 10.05 19.011 10.05 31.726 0 12.714-3.39 23.37-10.05 31.604-7.508 9.324-17.679 13.926-30.878 13.926-13.078 0-23.734-4.844-30.878-13.926-6.66-8.476-10.051-19.011-10.051-31.604Zm12.231 0c0 11.503 2.179 20.948 6.538 29.061 4.844 8.598 12.473 13.199 22.16 13.199s17.316-4.601 22.159-13.199c4.359-7.87 6.539-17.316 6.539-29.061 0-11.746-2.18-21.191-6.539-29.062-4.843-8.718-12.472-13.199-22.159-13.199s-17.316 4.602-22.16 13.199c-4.359 7.992-6.538 17.558-6.538 29.062Zm80.746-43.835h29.79v2.906c-8.84.485-9.44 1.211-9.44 12.473v34.631c0 12.836 1.21 19.617 4.36 25.187 3.75 6.539 10.29 9.808 19.37 9.808 10.66 0 18.65-4.117 22.64-11.503 2.67-5.207 3.88-12.594 3.88-24.339v-26.519c0-10.898-.36-14.41-1.7-16.347-1.57-2.301-4.11-3.27-9.2-3.391v-2.906h27v2.906c-4.72.121-7.14 1.09-8.84 3.391-1.69 2.3-2.3 6.296-2.3 16.347v26.882c0 14.289-1.69 22.159-6.17 28.335-5.21 7.387-14.9 11.504-26.76 11.504-11.75 0-22.04-4.238-27.49-11.262-4.24-5.449-5.81-12.351-5.81-24.944v-37.78c0-11.262-.61-11.988-9.33-12.473v-2.906Zm114.02 49.768v22.644c0 11.14.72 12.109 10.17 12.351v3.027h-30.28v-3.027c8.6-.242 9.33-1.09 9.33-12.351v-57.033c0-11.262-.61-12.109-9.33-12.473v-2.906h33.3c8.72 0 15.99 1.211 20.47 3.27 7.99 3.753 11.99 10.777 11.99 21.069 0 11.625-4.73 19.011-14.66 22.523-4.96 1.816-13.8 2.906-23.12 2.906h-7.87Zm0-3.633h8.59c9.45 0 15.99-1.695 19.74-5.085 3.51-3.27 5.57-9.082 5.57-16.226 0-14.168-7.63-21.191-23.01-21.191h-10.89v42.502Z"/></svg>